ISO-10303-21;
HEADER;
FILE_DESCRIPTION(('Open CASCADE Model'),'2;1');
FILE_NAME('Open CASCADE Shape Model','2026-09-25T22:09:26',('Author'),(
    'Open CASCADE'),'Open CASCADE STEP processor 7.9','Open CASCADE 7.9'
  ,'Unknown');
FILE_SCHEMA(('AUTOMOTIVE_DESIGN { 1 0 10303 214 1 1 1 1 }'));
ENDSEC;
DATA;
#1 = APPLICATION_PROTOCOL_DEFINITION('international standard',
  'automotive_design',2000,#2);
#2 = APPLICATION_CONTEXT(
  'core data for automotive mechanical design processes');
#3 = SHAPE_DEFINITION_REPRESENTATION(#4,#10);
#4 = PRODUCT_DEFINITION_SHAPE('','',#5);
#5 = PRODUCT_DEFINITION('design','',#6,#9);
#6 = PRODUCT_DEFINITION_FORMATION('','',#7);
#7 = PRODUCT('Open CASCADE STEP translator 7.9 11',
  'Open CASCADE STEP translator 7.9 11','',(#8));
#8 = PRODUCT_CONTEXT('',#2,'mechanical');
#9 = PRODUCT_DEFINITION_CONTEXT('part definition',#2,'design');
#10 = ADVANCED_BREP_SHAPE_REPRESENTATION('',(#11,#15),#691);
#11 = AXIS2_PLACEMENT_3D('',#12,#13,#14);
#12 = CARTESIAN_POINT('',(0.,0.,0.));
#13 = DIRECTION('',(0.,0.,1.));
#14 = DIRECTION('',(1.,0.,-0.));
#15 = MANIFOLD_SOLID_BREP('',#16);
#16 = CLOSED_SHELL('',(#17,#89,#144,#183,#289,#466,#627,#657,#664));
#17 = ADVANCED_FACE('',(#18,#54),#31,.T.);
#18 = FACE_BOUND('',#19,.T.);
#19 = EDGE_LOOP('',(#20));
#20 = ORIENTED_EDGE('',*,*,#21,.T.);
#21 = EDGE_CURVE('',#22,#22,#24,.T.);
#22 = VERTEX_POINT('',#23);
#23 = CARTESIAN_POINT('',(38.4,0.,1.05));
#24 = SURFACE_CURVE('',#25,(#30,#42),.PCURVE_S1.);
#25 = CIRCLE('',#26,38.4);
#26 = AXIS2_PLACEMENT_3D('',#27,#28,#29);
#27 = CARTESIAN_POINT('',(0.,0.,1.05));
#28 = DIRECTION('',(0.,0.,1.));
#29 = DIRECTION('',(1.,0.,0.));
#30 = PCURVE('',#31,#36);
#31 = PLANE('',#32);
#32 = AXIS2_PLACEMENT_3D('',#33,#34,#35);
#33 = CARTESIAN_POINT('',(-3.336067413565E-15,6.177165574951E-16,1.05));
#34 = DIRECTION('',(0.,0.,1.));
#35 = DIRECTION('',(1.,0.,-0.));
#36 = DEFINITIONAL_REPRESENTATION('',(#37),#41);
#37 = CIRCLE('',#38,38.4);
#38 = AXIS2_PLACEMENT_2D('',#39,#40);
#39 = CARTESIAN_POINT('',(3.336067413565E-15,-6.177165574951E-16));
#40 = DIRECTION('',(1.,0.));
#41 = ( GEOMETRIC_REPRESENTATION_CONTEXT(2) 
PARAMETRIC_REPRESENTATION_CONTEXT() REPRESENTATION_CONTEXT('2D SPACE',''
  ) );
#42 = PCURVE('',#43,#48);
#43 = CYLINDRICAL_SURFACE('',#44,38.4);
#44 = AXIS2_PLACEMENT_3D('',#45,#46,#47);
#45 = CARTESIAN_POINT('',(0.,0.,-2.));
#46 = DIRECTION('',(-0.,-0.,-1.));
#47 = DIRECTION('',(1.,0.,0.));
#48 = DEFINITIONAL_REPRESENTATION('',(#49),#53);
#49 = LINE('',#50,#51);
#50 = CARTESIAN_POINT('',(-0.,-3.05));
#51 = VECTOR('',#52,1.);
#52 = DIRECTION('',(-1.,0.));
#53 = ( GEOMETRIC_REPRESENTATION_CONTEXT(2) 
PARAMETRIC_REPRESENTATION_CONTEXT() REPRESENTATION_CONTEXT('2D SPACE',''
  ) );
#54 = FACE_BOUND('',#55,.T.);
#55 = EDGE_LOOP('',(#56));
#56 = ORIENTED_EDGE('',*,*,#57,.T.);
#57 = EDGE_CURVE('',#58,#58,#60,.T.);
#58 = VERTEX_POINT('',#59);
#59 = CARTESIAN_POINT('',(36.2,0.,1.05));
#60 = SURFACE_CURVE('',#61,(#66,#77),.PCURVE_S1.);
#61 = CIRCLE('',#62,36.2);
#62 = AXIS2_PLACEMENT_3D('',#63,#64,#65);
#63 = CARTESIAN_POINT('',(0.,0.,1.05));
#64 = DIRECTION('',(0.,0.,-1.));
#65 = DIRECTION('',(1.,0.,0.));
#66 = PCURVE('',#31,#67);
#67 = DEFINITIONAL_REPRESENTATION('',(#68),#76);
#68 = ( BOUNDED_CURVE() B_SPLINE_CURVE(2,(#69,#70,#71,#72,#73,#74,#75),
.UNSPECIFIED.,.T.,.F.) B_SPLINE_CURVE_WITH_KNOTS((1,2,2,2,2,1),(
    -2.094395102393,0.,2.094395102393,4.188790204786,6.28318530718,
8.377580409573),.UNSPECIFIED.) CURVE() GEOMETRIC_REPRESENTATION_ITEM() 
RATIONAL_B_SPLINE_CURVE((1.,0.5,1.,0.5,1.,0.5,1.)) REPRESENTATION_ITEM(
  '') );
#69 = CARTESIAN_POINT('',(36.2,-6.177165574951E-16));
#70 = CARTESIAN_POINT('',(36.2,-62.70023923399));
#71 = CARTESIAN_POINT('',(-18.1,-31.35011961699));
#72 = CARTESIAN_POINT('',(-72.4,-9.484159383322E-15));
#73 = CARTESIAN_POINT('',(-18.1,31.350119616997));
#74 = CARTESIAN_POINT('',(36.2,62.700239233993));
#75 = CARTESIAN_POINT('',(36.2,-6.177165574951E-16));
#76 = ( GEOMETRIC_REPRESENTATION_CONTEXT(2) 
PARAMETRIC_REPRESENTATION_CONTEXT() REPRESENTATION_CONTEXT('2D SPACE',''
  ) );
#77 = PCURVE('',#78,#83);
#78 = CYLINDRICAL_SURFACE('',#79,36.2);
#79 = AXIS2_PLACEMENT_3D('',#80,#81,#82);
#80 = CARTESIAN_POINT('',(0.,0.,0.));
#81 = DIRECTION('',(-0.,-0.,-1.));
#82 = DIRECTION('',(1.,0.,0.));
#83 = DEFINITIONAL_REPRESENTATION('',(#84),#88);
#84 = LINE('',#85,#86);
#85 = CARTESIAN_POINT('',(-6.28318530718,-1.05));
#86 = VECTOR('',#87,1.);
#87 = DIRECTION('',(1.,-0.));
#88 = ( GEOMETRIC_REPRESENTATION_CONTEXT(2) 
PARAMETRIC_REPRESENTATION_CONTEXT() REPRESENTATION_CONTEXT('2D SPACE',''
  ) );
#89 = ADVANCED_FACE('',(#90),#78,.F.);
#90 = FACE_BOUND('',#91,.T.);
#91 = EDGE_LOOP('',(#92,#121,#142,#143));
#92 = ORIENTED_EDGE('',*,*,#93,.F.);
#93 = EDGE_CURVE('',#94,#94,#96,.T.);
#94 = VERTEX_POINT('',#95);
#95 = CARTESIAN_POINT('',(36.2,0.,0.));
#96 = SURFACE_CURVE('',#97,(#102,#109),.PCURVE_S1.);
#97 = CIRCLE('',#98,36.2);
#98 = AXIS2_PLACEMENT_3D('',#99,#100,#101);
#99 = CARTESIAN_POINT('',(0.,0.,0.));
#100 = DIRECTION('',(0.,0.,1.));
#101 = DIRECTION('',(1.,0.,0.));
#102 = PCURVE('',#78,#103);
#103 = DEFINITIONAL_REPRESENTATION('',(#104),#108);
#104 = LINE('',#105,#106);
#105 = CARTESIAN_POINT('',(-0.,0.));
#106 = VECTOR('',#107,1.);
#107 = DIRECTION('',(-1.,0.));
#108 = ( GEOMETRIC_REPRESENTATION_CONTEXT(2) 
PARAMETRIC_REPRESENTATION_CONTEXT() REPRESENTATION_CONTEXT('2D SPACE',''
  ) );
#109 = PCURVE('',#110,#115);
#110 = PLANE('',#111);
#111 = AXIS2_PLACEMENT_3D('',#112,#113,#114);
#112 = CARTESIAN_POINT('',(-2.417573714987E-15,9.398332440157E-16,0.));
#113 = DIRECTION('',(0.,0.,1.));
#114 = DIRECTION('',(1.,0.,-0.));
#115 = DEFINITIONAL_REPRESENTATION('',(#116),#120);
#116 = CIRCLE('',#117,36.2);
#117 = AXIS2_PLACEMENT_2D('',#118,#119);
#118 = CARTESIAN_POINT('',(2.417573714987E-15,-9.398332440157E-16));
#119 = DIRECTION('',(1.,0.));
#120 = ( GEOMETRIC_REPRESENTATION_CONTEXT(2) 
PARAMETRIC_REPRESENTATION_CONTEXT() REPRESENTATION_CONTEXT('2D SPACE',''
  ) );
#121 = ORIENTED_EDGE('',*,*,#122,.T.);
#122 = EDGE_CURVE('',#94,#58,#123,.T.);
#123 = SEAM_CURVE('',#124,(#128,#135),.PCURVE_S1.);
#124 = LINE('',#125,#126);
#125 = CARTESIAN_POINT('',(36.2,0.,0.));
#126 = VECTOR('',#127,1.);
#127 = DIRECTION('',(0.,0.,1.));
#128 = PCURVE('',#78,#129);
#129 = DEFINITIONAL_REPRESENTATION('',(#130),#134);
#130 = LINE('',#131,#132);
#131 = CARTESIAN_POINT('',(-6.28318530718,0.));
#132 = VECTOR('',#133,1.);
#133 = DIRECTION('',(-0.,-1.));
#134 = ( GEOMETRIC_REPRESENTATION_CONTEXT(2) 
PARAMETRIC_REPRESENTATION_CONTEXT() REPRESENTATION_CONTEXT('2D SPACE',''
  ) );
#135 = PCURVE('',#78,#136);
#136 = DEFINITIONAL_REPRESENTATION('',(#137),#141);
#137 = LINE('',#138,#139);
#138 = CARTESIAN_POINT('',(-0.,0.));
#139 = VECTOR('',#140,1.);
#140 = DIRECTION('',(-0.,-1.));
#141 = ( GEOMETRIC_REPRESENTATION_CONTEXT(2) 
PARAMETRIC_REPRESENTATION_CONTEXT() REPRESENTATION_CONTEXT('2D SPACE',''
  ) );
#142 = ORIENTED_EDGE('',*,*,#57,.F.);
#143 = ORIENTED_EDGE('',*,*,#122,.F.);
#144 = ADVANCED_FACE('',(#145,#148),#110,.T.);
#145 = FACE_BOUND('',#146,.T.);
#146 = EDGE_LOOP('',(#147));
#147 = ORIENTED_EDGE('',*,*,#93,.T.);
#148 = FACE_BOUND('',#149,.T.);
#149 = EDGE_LOOP('',(#150));
#150 = ORIENTED_EDGE('',*,*,#151,.T.);
#151 = EDGE_CURVE('',#152,#152,#154,.T.);
#152 = VERTEX_POINT('',#153);
#153 = CARTESIAN_POINT('',(-35.9,0.,0.));
#154 = SURFACE_CURVE('',#155,(#160,#171),.PCURVE_S1.);
#155 = CIRCLE('',#156,35.9);
#156 = AXIS2_PLACEMENT_3D('',#157,#158,#159);
#157 = CARTESIAN_POINT('',(4.163799117101E-16,0.,0.));
#158 = DIRECTION('',(1.224646799147E-16,0.,-1.));
#159 = DIRECTION('',(-1.,0.,-1.224646799147E-16));
#160 = PCURVE('',#110,#161);
#161 = DEFINITIONAL_REPRESENTATION('',(#162),#170);
#162 = ( BOUNDED_CURVE() B_SPLINE_CURVE(2,(#163,#164,#165,#166,#167,#168
,#169),.UNSPECIFIED.,.T.,.F.) B_SPLINE_CURVE_WITH_KNOTS((1,2,2,2,2,1),(
    -2.094395102393,0.,2.094395102393,4.188790204786,6.28318530718,
8.377580409573),.UNSPECIFIED.) CURVE() GEOMETRIC_REPRESENTATION_ITEM() 
RATIONAL_B_SPLINE_CURVE((1.,0.5,1.,0.5,1.,0.5,1.)) REPRESENTATION_ITEM(
  '') );
#163 = CARTESIAN_POINT('',(-35.9,-9.398332440157E-16));
#164 = CARTESIAN_POINT('',(-35.9,62.180623991723));
#165 = CARTESIAN_POINT('',(17.95,31.090311995861));
#166 = CARTESIAN_POINT('',(71.8,7.853130773862E-15));
#167 = CARTESIAN_POINT('',(17.95,-31.09031199586));
#168 = CARTESIAN_POINT('',(-35.9,-62.18062399172));
#169 = CARTESIAN_POINT('',(-35.9,-9.398332440157E-16));
#170 = ( GEOMETRIC_REPRESENTATION_CONTEXT(2) 
PARAMETRIC_REPRESENTATION_CONTEXT() REPRESENTATION_CONTEXT('2D SPACE',''
  ) );
#171 = PCURVE('',#172,#177);
#172 = CYLINDRICAL_SURFACE('',#173,35.9);
#173 = AXIS2_PLACEMENT_3D('',#174,#175,#176);
#174 = CARTESIAN_POINT('',(1.469576158977E-16,0.,2.2));
#175 = DIRECTION('',(1.224646799147E-16,0.,-1.));
#176 = DIRECTION('',(-1.,0.,-1.224646799147E-16));
#177 = DEFINITIONAL_REPRESENTATION('',(#178),#182);
#178 = LINE('',#179,#180);
#179 = CARTESIAN_POINT('',(0.,2.2));
#180 = VECTOR('',#181,1.);
#181 = DIRECTION('',(1.,0.));
#182 = ( GEOMETRIC_REPRESENTATION_CONTEXT(2) 
PARAMETRIC_REPRESENTATION_CONTEXT() REPRESENTATION_CONTEXT('2D SPACE',''
  ) );
#183 = ADVANCED_FACE('',(#184),#172,.F.);
#184 = FACE_BOUND('',#185,.F.);
#185 = EDGE_LOOP('',(#186,#228,#266,#287,#288));
#186 = ORIENTED_EDGE('',*,*,#187,.F.);
#187 = EDGE_CURVE('',#188,#190,#192,.T.);
#188 = VERTEX_POINT('',#189);
#189 = CARTESIAN_POINT('',(35.9,0.,-1.E-01));
#190 = VERTEX_POINT('',#191);
#191 = CARTESIAN_POINT('',(-35.9,0.,-0.1));
#192 = SURFACE_CURVE('',#193,(#198,#205),.PCURVE_S1.);
#193 = CIRCLE('',#194,35.9);
#194 = AXIS2_PLACEMENT_3D('',#195,#196,#197);
#195 = CARTESIAN_POINT('',(4.286263797016E-16,0.,-1.E-01));
#196 = DIRECTION('',(1.224646799147E-16,0.,-1.));
#197 = DIRECTION('',(1.,0.,1.224646799147E-16));
#198 = PCURVE('',#172,#199);
#199 = DEFINITIONAL_REPRESENTATION('',(#200),#204);
#200 = LINE('',#201,#202);
#201 = CARTESIAN_POINT('',(3.14159265359,2.3));
#202 = VECTOR('',#203,1.);
#203 = DIRECTION('',(1.,0.));
#204 = ( GEOMETRIC_REPRESENTATION_CONTEXT(2) 
PARAMETRIC_REPRESENTATION_CONTEXT() REPRESENTATION_CONTEXT('2D SPACE',''
  ) );
#205 = PCURVE('',#206,#222);
#206 = SURFACE_OF_REVOLUTION('',#207,#219);
#207 = B_SPLINE_CURVE_WITH_KNOTS('',3,(#208,#209,#210,#211,#212,#213,
    #214,#215,#216,#217,#218),.UNSPECIFIED.,.F.,.F.,(4,1,1,1,1,1,1,1,4),
  (0.,0.125,0.25,0.375,0.5,0.625,0.75,0.875,1.),.QUASI_UNIFORM_KNOTS.);
#208 = CARTESIAN_POINT('',(35.90058800459,0.,-6.3834777853E-02));
#209 = CARTESIAN_POINT('',(35.89805472477,0.,-0.115543130703));
#210 = CARTESIAN_POINT('',(35.90994942779,0.,-0.214555909158));
#211 = CARTESIAN_POINT('',(35.76718913363,0.,-0.404349073673));
#212 = CARTESIAN_POINT('',(35.40377351734,0.,-0.637931227188));
#213 = CARTESIAN_POINT('',(34.86284960367,0.,-0.885139841469));
#214 = CARTESIAN_POINT('',(34.24482806797,0.,-1.101509406936));
#215 = CARTESIAN_POINT('',(33.66087268418,0.,-1.246875653453));
#216 = CARTESIAN_POINT('',(33.1863897729,0.,-1.303979771115));
#217 = CARTESIAN_POINT('',(32.93885782676,0.,-1.299221889907));
#218 = CARTESIAN_POINT('',(32.80958694463,0.,-1.300235201836));
#219 = AXIS1_PLACEMENT('',#220,#221);
#220 = CARTESIAN_POINT('',(4.286263797016E-16,0.,-1.E-01));
#221 = DIRECTION('',(1.224646799147E-16,0.,-1.));
#222 = DEFINITIONAL_REPRESENTATION('',(#223),#227);
#223 = LINE('',#224,#225);
#224 = CARTESIAN_POINT('',(0.,2.933866967806E-02));
#225 = VECTOR('',#226,1.);
#226 = DIRECTION('',(1.,7.5096429979E-17));
#227 = ( GEOMETRIC_REPRESENTATION_CONTEXT(2) 
PARAMETRIC_REPRESENTATION_CONTEXT() REPRESENTATION_CONTEXT('2D SPACE',''
  ) );
#228 = ORIENTED_EDGE('',*,*,#229,.F.);
#229 = EDGE_CURVE('',#190,#188,#230,.T.);
#230 = SURFACE_CURVE('',#231,(#236,#243),.PCURVE_S1.);
#231 = CIRCLE('',#232,35.9);
#232 = AXIS2_PLACEMENT_3D('',#233,#234,#235);
#233 = CARTESIAN_POINT('',(4.286263797016E-16,0.,-1.E-01));
#234 = DIRECTION('',(1.224646799147E-16,0.,-1.));
#235 = DIRECTION('',(-1.,0.,-1.224646799147E-16));
#236 = PCURVE('',#172,#237);
#237 = DEFINITIONAL_REPRESENTATION('',(#238),#242);
#238 = LINE('',#239,#240);
#239 = CARTESIAN_POINT('',(0.,2.3));
#240 = VECTOR('',#241,1.);
#241 = DIRECTION('',(1.,0.));
#242 = ( GEOMETRIC_REPRESENTATION_CONTEXT(2) 
PARAMETRIC_REPRESENTATION_CONTEXT() REPRESENTATION_CONTEXT('2D SPACE',''
  ) );
#243 = PCURVE('',#244,#260);
#244 = SURFACE_OF_REVOLUTION('',#245,#257);
#245 = B_SPLINE_CURVE_WITH_KNOTS('',3,(#246,#247,#248,#249,#250,#251,
    #252,#253,#254,#255,#256),.UNSPECIFIED.,.F.,.F.,(4,1,1,1,1,1,1,1,4),
  (0.,0.125,0.25,0.375,0.5,0.625,0.75,0.875,1.),.QUASI_UNIFORM_KNOTS.);
#246 = CARTESIAN_POINT('',(-35.90058800459,0.,-6.3834777853E-02));
#247 = CARTESIAN_POINT('',(-35.89805472477,0.,-0.115543130703));
#248 = CARTESIAN_POINT('',(-35.90994942779,0.,-0.214555909158));
#249 = CARTESIAN_POINT('',(-35.76718913363,0.,-0.404349073673));
#250 = CARTESIAN_POINT('',(-35.40377351734,0.,-0.637931227188));
#251 = CARTESIAN_POINT('',(-34.86284960367,0.,-0.885139841469));
#252 = CARTESIAN_POINT('',(-34.24482806797,0.,-1.101509406936));
#253 = CARTESIAN_POINT('',(-33.66087268418,0.,-1.246875653453));
#254 = CARTESIAN_POINT('',(-33.1863897729,0.,-1.303979771115));
#255 = CARTESIAN_POINT('',(-32.93885782676,0.,-1.299221889907));
#256 = CARTESIAN_POINT('',(-32.80958694463,0.,-1.300235201836));
#257 = AXIS1_PLACEMENT('',#258,#259);
#258 = CARTESIAN_POINT('',(4.286263797016E-16,0.,-1.E-01));
#259 = DIRECTION('',(1.224646799147E-16,0.,-1.));
#260 = DEFINITIONAL_REPRESENTATION('',(#261),#265);
#261 = LINE('',#262,#263);
#262 = CARTESIAN_POINT('',(0.,2.933866967806E-02));
#263 = VECTOR('',#264,1.);
#264 = DIRECTION('',(1.,7.5096429979E-17));
#265 = ( GEOMETRIC_REPRESENTATION_CONTEXT(2) 
PARAMETRIC_REPRESENTATION_CONTEXT() REPRESENTATION_CONTEXT('2D SPACE',''
  ) );
#266 = ORIENTED_EDGE('',*,*,#267,.T.);
#267 = EDGE_CURVE('',#190,#152,#268,.T.);
#268 = SEAM_CURVE('',#269,(#273,#280),.PCURVE_S1.);
#269 = LINE('',#270,#271);
#270 = CARTESIAN_POINT('',(-35.9,0.,-0.1));
#271 = VECTOR('',#272,1.);
#272 = DIRECTION('',(-1.224646799147E-16,0.,1.));
#273 = PCURVE('',#172,#274);
#274 = DEFINITIONAL_REPRESENTATION('',(#275),#279);
#275 = LINE('',#276,#277);
#276 = CARTESIAN_POINT('',(0.,2.3));
#277 = VECTOR('',#278,1.);
#278 = DIRECTION('',(0.,-1.));
#279 = ( GEOMETRIC_REPRESENTATION_CONTEXT(2) 
PARAMETRIC_REPRESENTATION_CONTEXT() REPRESENTATION_CONTEXT('2D SPACE',''
  ) );
#280 = PCURVE('',#172,#281);
#281 = DEFINITIONAL_REPRESENTATION('',(#282),#286);
#282 = LINE('',#283,#284);
#283 = CARTESIAN_POINT('',(6.28318530718,2.3));
#284 = VECTOR('',#285,1.);
#285 = DIRECTION('',(0.,-1.));
#286 = ( GEOMETRIC_REPRESENTATION_CONTEXT(2) 
PARAMETRIC_REPRESENTATION_CONTEXT() REPRESENTATION_CONTEXT('2D SPACE',''
  ) );
#287 = ORIENTED_EDGE('',*,*,#151,.T.);
#288 = ORIENTED_EDGE('',*,*,#267,.F.);
#289 = ADVANCED_FACE('',(#290),#244,.F.);
#290 = FACE_BOUND('',#291,.F.);
#291 = EDGE_LOOP('',(#292,#403,#434,#435));
#292 = ORIENTED_EDGE('',*,*,#293,.T.);
#293 = EDGE_CURVE('',#294,#296,#298,.T.);
#294 = VERTEX_POINT('',#295);
#295 = CARTESIAN_POINT('',(34.7,0.,-0.938008905188));
#296 = VERTEX_POINT('',#297);
#297 = CARTESIAN_POINT('',(-34.7,0.,-0.938008905188));
#298 = SURFACE_CURVE('',#299,(#330,#364),.PCURVE_S1.);
#299 = B_SPLINE_CURVE_WITH_KNOTS('',8,(#300,#301,#302,#303,#304,#305,
    #306,#307,#308,#309,#310,#311,#312,#313,#314,#315,#316,#317,#318,
    #319,#320,#321,#322,#323,#324,#325,#326,#327,#328,#329),
  .UNSPECIFIED.,.F.,.F.,(9,7,7,7,9),(0.,0.249999999999,0.499999999999,
    0.749999999999,1.),.UNSPECIFIED.);
#300 = CARTESIAN_POINT('',(34.7,4.249524393041E-15,-0.938005660643));
#301 = CARTESIAN_POINT('',(34.7,3.405834902036,-0.938005660643));
#302 = CARTESIAN_POINT('',(34.31795876887,6.813885584004,-0.938005660643
    ));
#303 = CARTESIAN_POINT('',(33.553011447747,10.170697673807,
    -0.938005660643));
#304 = CARTESIAN_POINT('',(32.414284300005,13.426436171728,
    -0.938005660643));
#305 = CARTESIAN_POINT('',(30.917331218512,16.53379262932,
    -0.938005660643));
#306 = CARTESIAN_POINT('',(29.084606064611,19.448316659294,
    -0.938005660643));
#307 = CARTESIAN_POINT('',(26.94489426201,22.128316352336,
    -0.938005660643));
#308 = CARTESIAN_POINT('',(22.128316352336,26.944894262011,
    -0.938005660643));
#309 = CARTESIAN_POINT('',(19.44831665932,29.084606064609,
    -0.938005660643));
#310 = CARTESIAN_POINT('',(16.533792629263,30.917331218497,
    -0.938005660643));
#311 = CARTESIAN_POINT('',(13.42643617181,32.41428430003,-0.938005660643
    ));
#312 = CARTESIAN_POINT('',(10.170697673749,33.553011447724,
    -0.938005660643));
#313 = CARTESIAN_POINT('',(6.813885584034,34.317958768877,
    -0.938005660643));
#314 = CARTESIAN_POINT('',(3.405834902033,34.7,-0.938005660643));
#315 = CARTESIAN_POINT('',(-3.405834902043,34.7,-0.938005660643));
#316 = CARTESIAN_POINT('',(-6.813885583964,34.31795876887,
    -0.938005660643));
#317 = CARTESIAN_POINT('',(-10.17069767388,33.553011447747,
    -0.938005660643));
#318 = CARTESIAN_POINT('',(-13.42643617164,32.41428430001,
    -0.938005660643));
#319 = CARTESIAN_POINT('',(-16.53379262937,30.917331218505,
    -0.938005660643));
#320 = CARTESIAN_POINT('',(-19.44831665927,29.084606064617,
    -0.938005660643));
#321 = CARTESIAN_POINT('',(-22.12831635233,26.944894262009,
    -0.938005660643));
#322 = CARTESIAN_POINT('',(-26.944894262,22.128316352338,-0.938005660643
    ));
#323 = CARTESIAN_POINT('',(-29.08460606461,19.448316659296,
    -0.938005660643));
#324 = CARTESIAN_POINT('',(-30.9173312185,16.533792629327,
    -0.938005660643));
#325 = CARTESIAN_POINT('',(-32.41428430001,13.426436171718,
    -0.938005660643));
#326 = CARTESIAN_POINT('',(-33.55301144773,10.170697673823,
    -0.938005660643));
#327 = CARTESIAN_POINT('',(-34.31795876887,6.813885583996,
    -0.938005660643));
#328 = CARTESIAN_POINT('',(-34.7,3.405834902039,-0.938005660643));
#329 = CARTESIAN_POINT('',(-34.7,0.,-0.938005660643));
#330 = PCURVE('',#244,#331);
#331 = DEFINITIONAL_REPRESENTATION('',(#332),#363);
#332 = B_SPLINE_CURVE_WITH_KNOTS('',8,(#333,#334,#335,#336,#337,#338,
    #339,#340,#341,#342,#343,#344,#345,#346,#347,#348,#349,#350,#351,
    #352,#353,#354,#355,#356,#357,#358,#359,#360,#361,#362),
  .UNSPECIFIED.,.F.,.F.,(9,7,7,7,9),(0.,0.249999999999,0.499999999999,
    0.749999999999,1.),.UNSPECIFIED.);
#333 = CARTESIAN_POINT('',(3.14159265359,0.531882352149));
#334 = CARTESIAN_POINT('',(3.04344179186,0.531882352149));
#335 = CARTESIAN_POINT('',(2.945227155837,0.531882352149));
#336 = CARTESIAN_POINT('',(2.847047738725,0.531882352149));
#337 = CARTESIAN_POINT('',(2.748893571889,0.531882352149));
#338 = CARTESIAN_POINT('',(2.650739405061,0.531882352149));
#339 = CARTESIAN_POINT('',(2.552559987944,0.531882352149));
#340 = CARTESIAN_POINT('',(2.454345351923,0.531882352149));
#341 = CARTESIAN_POINT('',(2.258043628462,0.531882352149));
#342 = CARTESIAN_POINT('',(2.159828992441,0.531882352149));
#343 = CARTESIAN_POINT('',(2.061649575324,0.531882352149));
#344 = CARTESIAN_POINT('',(1.963495408497,0.531882352149));
#345 = CARTESIAN_POINT('',(1.865341241658,0.531882352149));
#346 = CARTESIAN_POINT('',(1.767161824548,0.531882352149));
#347 = CARTESIAN_POINT('',(1.668947188525,0.531882352149));
#348 = CARTESIAN_POINT('',(1.472645465065,0.531882352149));
#349 = CARTESIAN_POINT('',(1.374430829044,0.531882352149));
#350 = CARTESIAN_POINT('',(1.276251411927,0.531882352149));
#351 = CARTESIAN_POINT('',(1.178097245099,0.531882352149));
#352 = CARTESIAN_POINT('',(1.079943078262,0.531882352149));
#353 = CARTESIAN_POINT('',(0.98176366115,0.531882352149));
#354 = CARTESIAN_POINT('',(0.883549025128,0.531882352149));
#355 = CARTESIAN_POINT('',(0.687247301667,0.531882352149));
#356 = CARTESIAN_POINT('',(0.589032665646,0.531882352149));
#357 = CARTESIAN_POINT('',(0.490853248531,0.531882352149));
#358 = CARTESIAN_POINT('',(0.3926990817,0.531882352149));
#359 = CARTESIAN_POINT('',(0.294544914866,0.531882352149));
#360 = CARTESIAN_POINT('',(0.196365497752,0.531882352149));
#361 = CARTESIAN_POINT('',(9.815086173024E-02,0.531882352149));
#362 = CARTESIAN_POINT('',(0.,0.531882352149));
#363 = ( GEOMETRIC_REPRESENTATION_CONTEXT(2) 
PARAMETRIC_REPRESENTATION_CONTEXT() REPRESENTATION_CONTEXT('2D SPACE',''
  ) );
#364 = PCURVE('',#365,#370);
#365 = CYLINDRICAL_SURFACE('',#366,34.7);
#366 = AXIS2_PLACEMENT_3D('',#367,#368,#369);
#367 = CARTESIAN_POINT('',(0.,0.,-3.));
#368 = DIRECTION('',(-0.,-0.,-1.));
#369 = DIRECTION('',(1.,0.,0.));
#370 = DEFINITIONAL_REPRESENTATION('',(#371),#402);
#371 = B_SPLINE_CURVE_WITH_KNOTS('',8,(#372,#373,#374,#375,#376,#377,
    #378,#379,#380,#381,#382,#383,#384,#385,#386,#387,#388,#389,#390,
    #391,#392,#393,#394,#395,#396,#397,#398,#399,#400,#401),
  .UNSPECIFIED.,.F.,.F.,(9,7,7,7,9),(0.,0.249999999999,0.499999999999,
    0.749999999999,1.),.UNSPECIFIED.);
#372 = CARTESIAN_POINT('',(0.,-2.061994339357));
#373 = CARTESIAN_POINT('',(-9.815086173015E-02,-2.061994339357));
#374 = CARTESIAN_POINT('',(-0.196365497752,-2.061994339357));
#375 = CARTESIAN_POINT('',(-0.294544914866,-2.061994339357));
#376 = CARTESIAN_POINT('',(-0.392699081699,-2.061994339357));
#377 = CARTESIAN_POINT('',(-0.490853248531,-2.061994339357));
#378 = CARTESIAN_POINT('',(-0.589032665646,-2.061994339357));
#379 = CARTESIAN_POINT('',(-0.687247301667,-2.061994339357));
#380 = CARTESIAN_POINT('',(-0.883549025128,-2.061994339357));
#381 = CARTESIAN_POINT('',(-0.981763661148,-2.061994339357));
#382 = CARTESIAN_POINT('',(-1.079943078266,-2.061994339357));
#383 = CARTESIAN_POINT('',(-1.178097245093,-2.061994339357));
#384 = CARTESIAN_POINT('',(-1.276251411931,-2.061994339357));
#385 = CARTESIAN_POINT('',(-1.374430829042,-2.061994339357));
#386 = CARTESIAN_POINT('',(-1.472645465065,-2.061994339357));
#387 = CARTESIAN_POINT('',(-1.668947188525,-2.061994339357));
#388 = CARTESIAN_POINT('',(-1.767161824547,-2.061994339357));
#389 = CARTESIAN_POINT('',(-1.865341241661,-2.061994339357));
#390 = CARTESIAN_POINT('',(-1.963495408494,-2.061994339357));
#391 = CARTESIAN_POINT('',(-2.061649575326,-2.061994339357));
#392 = CARTESIAN_POINT('',(-2.15982899244,-2.061994339357));
#393 = CARTESIAN_POINT('',(-2.258043628462,-2.061994339357));
#394 = CARTESIAN_POINT('',(-2.454345351923,-2.061994339357));
#395 = CARTESIAN_POINT('',(-2.552559987944,-2.061994339357));
#396 = CARTESIAN_POINT('',(-2.65073940506,-2.061994339357));
#397 = CARTESIAN_POINT('',(-2.748893571888,-2.061994339357));
#398 = CARTESIAN_POINT('',(-2.847047738726,-2.061994339357));
#399 = CARTESIAN_POINT('',(-2.945227155837,-2.061994339357));
#400 = CARTESIAN_POINT('',(-3.04344179186,-2.061994339357));
#401 = CARTESIAN_POINT('',(-3.14159265359,-2.061994339357));
#402 = ( GEOMETRIC_REPRESENTATION_CONTEXT(2) 
PARAMETRIC_REPRESENTATION_CONTEXT() REPRESENTATION_CONTEXT('2D SPACE',''
  ) );
#403 = ORIENTED_EDGE('',*,*,#404,.T.);
#404 = EDGE_CURVE('',#296,#190,#405,.T.);
#405 = SURFACE_CURVE('',#406,(#422,#428),.PCURVE_S1.);
#406 = B_SPLINE_CURVE_WITH_KNOTS('',3,(#407,#408,#409,#410,#411,#412,
    #413,#414,#415,#416,#417,#418,#419,#420,#421),.UNSPECIFIED.,.F.,.F.,
  (4,1,1,1,1,1,1,1,1,1,1,1,4),(0.,6.25E-02,0.125,0.1875,0.25,0.375,0.5,
    0.625,0.75,0.8125,0.875,0.9375,1.),.UNSPECIFIED.);
#407 = CARTESIAN_POINT('',(-32.9,0.,-1.3));
#408 = CARTESIAN_POINT('',(-32.96,0.,-1.3));
#409 = CARTESIAN_POINT('',(-33.08021832693,0.,-1.29990070968));
#410 = CARTESIAN_POINT('',(-33.27591172853,0.,-1.290407635749));
#411 = CARTESIAN_POINT('',(-33.49474315737,0.,-1.265712887949));
#412 = CARTESIAN_POINT('',(-33.81957350305,0.,-1.20857393247));
#413 = CARTESIAN_POINT('',(-34.28176331068,0.,-1.089113918022));
#414 = CARTESIAN_POINT('',(-34.86136297357,0.,-0.884545189426));
#415 = CARTESIAN_POINT('',(-35.37278479506,0.,-0.652705324272));
#416 = CARTESIAN_POINT('',(-35.67143483118,0.,-0.46782940122));
#417 = CARTESIAN_POINT('',(-35.81428221987,0.,-0.337897262949));
#418 = CARTESIAN_POINT('',(-35.87601908937,0.,-0.250364691413));
#419 = CARTESIAN_POINT('',(-35.8997517742,0.,-0.172087330774));
#420 = CARTESIAN_POINT('',(-35.9,0.,-0.124));
#421 = CARTESIAN_POINT('',(-35.9,0.,-0.1));
#422 = PCURVE('',#244,#423);
#423 = DEFINITIONAL_REPRESENTATION('',(#424),#427);
#424 = B_SPLINE_CURVE_WITH_KNOTS('',1,(#425,#426),.UNSPECIFIED.,.F.,.F.,
  (2,2),(0.,1.),.PIECEWISE_BEZIER_KNOTS.);
#425 = CARTESIAN_POINT('',(0.,0.970659415987));
#426 = CARTESIAN_POINT('',(0.,2.933866967806E-02));
#427 = ( GEOMETRIC_REPRESENTATION_CONTEXT(2) 
PARAMETRIC_REPRESENTATION_CONTEXT() REPRESENTATION_CONTEXT('2D SPACE',''
  ) );
#428 = PCURVE('',#206,#429);
#429 = DEFINITIONAL_REPRESENTATION('',(#430),#433);
#430 = B_SPLINE_CURVE_WITH_KNOTS('',1,(#431,#432),.UNSPECIFIED.,.F.,.F.,
  (2,2),(0.,1.),.PIECEWISE_BEZIER_KNOTS.);
#431 = CARTESIAN_POINT('',(3.14159265359,0.970659415987));
#432 = CARTESIAN_POINT('',(3.14159265359,2.933866967806E-02));
#433 = ( GEOMETRIC_REPRESENTATION_CONTEXT(2) 
PARAMETRIC_REPRESENTATION_CONTEXT() REPRESENTATION_CONTEXT('2D SPACE',''
  ) );
#434 = ORIENTED_EDGE('',*,*,#229,.T.);
#435 = ORIENTED_EDGE('',*,*,#436,.F.);
#436 = EDGE_CURVE('',#294,#188,#437,.T.);
#437 = SURFACE_CURVE('',#438,(#454,#460),.PCURVE_S1.);
#438 = B_SPLINE_CURVE_WITH_KNOTS('',3,(#439,#440,#441,#442,#443,#444,
    #445,#446,#447,#448,#449,#450,#451,#452,#453),.UNSPECIFIED.,.F.,.F.,
  (4,1,1,1,1,1,1,1,1,1,1,1,4),(0.,6.25E-02,0.125,0.1875,0.25,0.375,0.5,
    0.625,0.75,0.8125,0.875,0.9375,1.),.UNSPECIFIED.);
#439 = CARTESIAN_POINT('',(32.9,0.,-1.3));
#440 = CARTESIAN_POINT('',(32.96,0.,-1.3));
#441 = CARTESIAN_POINT('',(33.08021832693,0.,-1.29990070968));
#442 = CARTESIAN_POINT('',(33.27591172853,0.,-1.290407635749));
#443 = CARTESIAN_POINT('',(33.49474315737,0.,-1.265712887949));
#444 = CARTESIAN_POINT('',(33.81957350305,0.,-1.20857393247));
#445 = CARTESIAN_POINT('',(34.28176331068,0.,-1.089113918022));
#446 = CARTESIAN_POINT('',(34.86136297357,0.,-0.884545189426));
#447 = CARTESIAN_POINT('',(35.37278479506,0.,-0.652705324272));
#448 = CARTESIAN_POINT('',(35.67143483118,0.,-0.46782940122));
#449 = CARTESIAN_POINT('',(35.81428221987,0.,-0.337897262949));
#450 = CARTESIAN_POINT('',(35.87601908937,0.,-0.250364691413));
#451 = CARTESIAN_POINT('',(35.8997517742,0.,-0.172087330774));
#452 = CARTESIAN_POINT('',(35.9,0.,-0.124));
#453 = CARTESIAN_POINT('',(35.9,0.,-1.E-01));
#454 = PCURVE('',#244,#455);
#455 = DEFINITIONAL_REPRESENTATION('',(#456),#459);
#456 = B_SPLINE_CURVE_WITH_KNOTS('',1,(#457,#458),.UNSPECIFIED.,.F.,.F.,
  (2,2),(0.,1.),.PIECEWISE_BEZIER_KNOTS.);
#457 = CARTESIAN_POINT('',(3.14159265359,0.970659415987));
#458 = CARTESIAN_POINT('',(3.14159265359,2.933866967806E-02));
#459 = ( GEOMETRIC_REPRESENTATION_CONTEXT(2) 
PARAMETRIC_REPRESENTATION_CONTEXT() REPRESENTATION_CONTEXT('2D SPACE',''
  ) );
#460 = PCURVE('',#206,#461);
#461 = DEFINITIONAL_REPRESENTATION('',(#462),#465);
#462 = B_SPLINE_CURVE_WITH_KNOTS('',1,(#463,#464),.UNSPECIFIED.,.F.,.F.,
  (2,2),(0.,1.),.PIECEWISE_BEZIER_KNOTS.);
#463 = CARTESIAN_POINT('',(0.,0.970659415987));
#464 = CARTESIAN_POINT('',(0.,2.933866967806E-02));
#465 = ( GEOMETRIC_REPRESENTATION_CONTEXT(2) 
PARAMETRIC_REPRESENTATION_CONTEXT() REPRESENTATION_CONTEXT('2D SPACE',''
  ) );
#466 = ADVANCED_FACE('',(#467),#365,.F.);
#467 = FACE_BOUND('',#468,.T.);
#468 = EDGE_LOOP('',(#469,#502,#523,#524,#626));
#469 = ORIENTED_EDGE('',*,*,#470,.T.);
#470 = EDGE_CURVE('',#471,#471,#473,.T.);
#471 = VERTEX_POINT('',#472);
#472 = CARTESIAN_POINT('',(34.7,0.,-2.));
#473 = SURFACE_CURVE('',#474,(#479,#486),.PCURVE_S1.);
#474 = CIRCLE('',#475,34.7);
#475 = AXIS2_PLACEMENT_3D('',#476,#477,#478);
#476 = CARTESIAN_POINT('',(0.,0.,-2.));
#477 = DIRECTION('',(0.,0.,-1.));
#478 = DIRECTION('',(1.,0.,0.));
#479 = PCURVE('',#365,#480);
#480 = DEFINITIONAL_REPRESENTATION('',(#481),#485);
#481 = LINE('',#482,#483);
#482 = CARTESIAN_POINT('',(-6.28318530718,-1.));
#483 = VECTOR('',#484,1.);
#484 = DIRECTION('',(1.,-0.));
#485 = ( GEOMETRIC_REPRESENTATION_CONTEXT(2) 
PARAMETRIC_REPRESENTATION_CONTEXT() REPRESENTATION_CONTEXT('2D SPACE',''
  ) );
#486 = PCURVE('',#487,#492);
#487 = PLANE('',#488);
#488 = AXIS2_PLACEMENT_3D('',#489,#490,#491);
#489 = CARTESIAN_POINT('',(-4.118407928589E-15,3.242876655026E-16,-2.));
#490 = DIRECTION('',(0.,0.,1.));
#491 = DIRECTION('',(1.,0.,-0.));
#492 = DEFINITIONAL_REPRESENTATION('',(#493),#501);
#493 = ( BOUNDED_CURVE() B_SPLINE_CURVE(2,(#494,#495,#496,#497,#498,#499
,#500),.UNSPECIFIED.,.T.,.F.) B_SPLINE_CURVE_WITH_KNOTS((1,2,2,2,2,1),(
    -2.094395102393,0.,2.094395102393,4.188790204786,6.28318530718,
8.377580409573),.UNSPECIFIED.) CURVE() GEOMETRIC_REPRESENTATION_ITEM() 
RATIONAL_B_SPLINE_CURVE((1.,0.5,1.,0.5,1.,0.5,1.)) REPRESENTATION_ITEM(
  '') );
#494 = CARTESIAN_POINT('',(34.7,-3.242876655026E-16));
#495 = CARTESIAN_POINT('',(34.7,-60.10216302264));
#496 = CARTESIAN_POINT('',(-17.35,-30.05108151132));
#497 = CARTESIAN_POINT('',(-69.4,-8.823336451585E-15));
#498 = CARTESIAN_POINT('',(-17.35,30.05108151132));
#499 = CARTESIAN_POINT('',(34.7,60.10216302264));
#500 = CARTESIAN_POINT('',(34.7,-3.242876655026E-16));
#501 = ( GEOMETRIC_REPRESENTATION_CONTEXT(2) 
PARAMETRIC_REPRESENTATION_CONTEXT() REPRESENTATION_CONTEXT('2D SPACE',''
  ) );
#502 = ORIENTED_EDGE('',*,*,#503,.T.);
#503 = EDGE_CURVE('',#471,#294,#504,.T.);
#504 = SEAM_CURVE('',#505,(#509,#516),.PCURVE_S1.);
#505 = LINE('',#506,#507);
#506 = CARTESIAN_POINT('',(34.7,0.,-3.));
#507 = VECTOR('',#508,1.);
#508 = DIRECTION('',(0.,0.,1.));
#509 = PCURVE('',#365,#510);
#510 = DEFINITIONAL_REPRESENTATION('',(#511),#515);
#511 = LINE('',#512,#513);
#512 = CARTESIAN_POINT('',(-6.28318530718,0.));
#513 = VECTOR('',#514,1.);
#514 = DIRECTION('',(-0.,-1.));
#515 = ( GEOMETRIC_REPRESENTATION_CONTEXT(2) 
PARAMETRIC_REPRESENTATION_CONTEXT() REPRESENTATION_CONTEXT('2D SPACE',''
  ) );
#516 = PCURVE('',#365,#517);
#517 = DEFINITIONAL_REPRESENTATION('',(#518),#522);
#518 = LINE('',#519,#520);
#519 = CARTESIAN_POINT('',(-0.,0.));
#520 = VECTOR('',#521,1.);
#521 = DIRECTION('',(-0.,-1.));
#522 = ( GEOMETRIC_REPRESENTATION_CONTEXT(2) 
PARAMETRIC_REPRESENTATION_CONTEXT() REPRESENTATION_CONTEXT('2D SPACE',''
  ) );
#523 = ORIENTED_EDGE('',*,*,#293,.T.);
#524 = ORIENTED_EDGE('',*,*,#525,.T.);
#525 = EDGE_CURVE('',#296,#294,#526,.T.);
#526 = SURFACE_CURVE('',#527,(#558,#592),.PCURVE_S1.);
#527 = B_SPLINE_CURVE_WITH_KNOTS('',8,(#528,#529,#530,#531,#532,#533,
    #534,#535,#536,#537,#538,#539,#540,#541,#542,#543,#544,#545,#546,
    #547,#548,#549,#550,#551,#552,#553,#554,#555,#556,#557),
  .UNSPECIFIED.,.F.,.F.,(9,7,7,7,9),(0.,0.249999999999,0.499999999999,
    0.749999999999,1.),.UNSPECIFIED.);
#528 = CARTESIAN_POINT('',(-34.7,-7.105427357601E-15,-0.938005660643));
#529 = CARTESIAN_POINT('',(-34.7,-3.405834902044,-0.938005660643));
#530 = CARTESIAN_POINT('',(-34.31795876887,-6.813885583973,
    -0.938005660643));
#531 = CARTESIAN_POINT('',(-33.55301144771,-10.17069767387,
    -0.938005660643));
#532 = CARTESIAN_POINT('',(-32.41428430005,-13.42643617164,
    -0.938005660643));
#533 = CARTESIAN_POINT('',(-30.91733121846,-16.53379262938,
    -0.938005660643));
#534 = CARTESIAN_POINT('',(-29.08460606463,-19.44831665926,
    -0.938005660643));
#535 = CARTESIAN_POINT('',(-26.944894262,-22.12831635234,-0.938005660643
    ));
#536 = CARTESIAN_POINT('',(-22.12831635234,-26.944894262,-0.938005660643
    ));
#537 = CARTESIAN_POINT('',(-19.44831665929,-29.08460606461,
    -0.938005660643));
#538 = CARTESIAN_POINT('',(-16.53379262933,-30.91733121849,
    -0.938005660643));
#539 = CARTESIAN_POINT('',(-13.42643617171,-32.41428430002,
    -0.938005660643));
#540 = CARTESIAN_POINT('',(-10.17069767382,-33.55301144773,
    -0.938005660643));
#541 = CARTESIAN_POINT('',(-6.813885584001,-34.31795876887,
    -0.938005660643));
#542 = CARTESIAN_POINT('',(-3.405834902039,-34.7,-0.938005660643));
#543 = CARTESIAN_POINT('',(3.405834902048,-34.7,-0.938005660643));
#544 = CARTESIAN_POINT('',(6.813885583974,-34.31795876886,
    -0.938005660643));
#545 = CARTESIAN_POINT('',(10.170697673818,-33.55301144776,
    -0.938005660643));
#546 = CARTESIAN_POINT('',(13.426436171754,-32.41428429997,
    -0.938005660643));
#547 = CARTESIAN_POINT('',(16.533792629276,-30.91733121855,
    -0.938005660643));
#548 = CARTESIAN_POINT('',(19.448316659319,-29.08460606458,
    -0.938005660643));
#549 = CARTESIAN_POINT('',(22.128316352329,-26.94489426201,
    -0.938005660643));
#550 = CARTESIAN_POINT('',(26.944894262016,-22.12831635233,
    -0.938005660643));
#551 = CARTESIAN_POINT('',(29.084606064588,-19.44831665933,
    -0.938005660643));
#552 = CARTESIAN_POINT('',(30.917331218538,-16.53379262923,
    -0.938005660643));
#553 = CARTESIAN_POINT('',(32.414284299984,-13.42643617184,
    -0.938005660643));
#554 = CARTESIAN_POINT('',(33.553011447755,-10.17069767372,
    -0.938005660643));
#555 = CARTESIAN_POINT('',(34.317958768868,-6.813885584043,
    -0.938005660643));
#556 = CARTESIAN_POINT('',(34.7,-3.40583490203,-0.938005660643));
#557 = CARTESIAN_POINT('',(34.7,0.,-0.938005660643));
#558 = PCURVE('',#365,#559);
#559 = DEFINITIONAL_REPRESENTATION('',(#560),#591);
#560 = B_SPLINE_CURVE_WITH_KNOTS('',8,(#561,#562,#563,#564,#565,#566,
    #567,#568,#569,#570,#571,#572,#573,#574,#575,#576,#577,#578,#579,
    #580,#581,#582,#583,#584,#585,#586,#587,#588,#589,#590),
  .UNSPECIFIED.,.F.,.F.,(9,7,7,7,9),(0.,0.249999999999,0.499999999999,
    0.749999999999,1.),.UNSPECIFIED.);
#561 = CARTESIAN_POINT('',(-3.14159265359,-2.061994339357));
#562 = CARTESIAN_POINT('',(-3.23974351532,-2.061994339357));
#563 = CARTESIAN_POINT('',(-3.337958151341,-2.061994339357));
#564 = CARTESIAN_POINT('',(-3.436137568457,-2.061994339357));
#565 = CARTESIAN_POINT('',(-3.534291735287,-2.061994339357));
#566 = CARTESIAN_POINT('',(-3.632445902122,-2.061994339357));
#567 = CARTESIAN_POINT('',(-3.730625319235,-2.061994339357));
#568 = CARTESIAN_POINT('',(-3.828839955257,-2.061994339357));
#569 = CARTESIAN_POINT('',(-4.025141678717,-2.061994339357));
#570 = CARTESIAN_POINT('',(-4.123356314739,-2.061994339357));
#571 = CARTESIAN_POINT('',(-4.221535731854,-2.061994339357));
#572 = CARTESIAN_POINT('',(-4.319689898684,-2.061994339357));
#573 = CARTESIAN_POINT('',(-4.41784406552,-2.061994339357));
#574 = CARTESIAN_POINT('',(-4.516023482632,-2.061994339357));
#575 = CARTESIAN_POINT('',(-4.614238118654,-2.061994339357));
#576 = CARTESIAN_POINT('',(-4.810539842115,-2.061994339357));
#577 = CARTESIAN_POINT('',(-4.908754478137,-2.061994339357));
#578 = CARTESIAN_POINT('',(-5.006933895248,-2.061994339357));
#579 = CARTESIAN_POINT('',(-5.105088062088,-2.061994339357));
#580 = CARTESIAN_POINT('',(-5.203242228912,-2.061994339357));
#581 = CARTESIAN_POINT('',(-5.301421646032,-2.061994339357));
#582 = CARTESIAN_POINT('',(-5.399636282051,-2.061994339357));
#583 = CARTESIAN_POINT('',(-5.595938005513,-2.061994339357));
#584 = CARTESIAN_POINT('',(-5.694152641532,-2.061994339357));
#585 = CARTESIAN_POINT('',(-5.792332058652,-2.061994339357));
#586 = CARTESIAN_POINT('',(-5.890486225476,-2.061994339357));
#587 = CARTESIAN_POINT('',(-5.988640392317,-2.061994339357));
#588 = CARTESIAN_POINT('',(-6.086819809426,-2.061994339357));
#589 = CARTESIAN_POINT('',(-6.18503444545,-2.061994339357));
#590 = CARTESIAN_POINT('',(-6.28318530718,-2.061994339357));
#591 = ( GEOMETRIC_REPRESENTATION_CONTEXT(2) 
PARAMETRIC_REPRESENTATION_CONTEXT() REPRESENTATION_CONTEXT('2D SPACE',''
  ) );
#592 = PCURVE('',#206,#593);
#593 = DEFINITIONAL_REPRESENTATION('',(#594),#625);
#594 = B_SPLINE_CURVE_WITH_KNOTS('',8,(#595,#596,#597,#598,#599,#600,
    #601,#602,#603,#604,#605,#606,#607,#608,#609,#610,#611,#612,#613,
    #614,#615,#616,#617,#618,#619,#620,#621,#622,#623,#624),
  .UNSPECIFIED.,.F.,.F.,(9,7,7,7,9),(0.,0.249999999999,0.499999999999,
    0.749999999999,1.),.UNSPECIFIED.);
#595 = CARTESIAN_POINT('',(3.14159265359,0.531882352149));
#596 = CARTESIAN_POINT('',(3.043441791859,0.531882352149));
#597 = CARTESIAN_POINT('',(2.945227155839,0.531882352149));
#598 = CARTESIAN_POINT('',(2.847047738722,0.531882352149));
#599 = CARTESIAN_POINT('',(2.748893571893,0.531882352149));
#600 = CARTESIAN_POINT('',(2.650739405057,0.531882352149));
#601 = CARTESIAN_POINT('',(2.552559987945,0.531882352149));
#602 = CARTESIAN_POINT('',(2.454345351923,0.531882352149));
#603 = CARTESIAN_POINT('',(2.258043628462,0.531882352149));
#604 = CARTESIAN_POINT('',(2.15982899244,0.531882352149));
#605 = CARTESIAN_POINT('',(2.061649575327,0.531882352149));
#606 = CARTESIAN_POINT('',(1.963495408492,0.531882352149));
#607 = CARTESIAN_POINT('',(1.865341241662,0.531882352149));
#608 = CARTESIAN_POINT('',(1.767161824547,0.531882352149));
#609 = CARTESIAN_POINT('',(1.668947188525,0.531882352149));
#610 = CARTESIAN_POINT('',(1.472645465064,0.531882352149));
#611 = CARTESIAN_POINT('',(1.374430829043,0.531882352149));
#612 = CARTESIAN_POINT('',(1.276251411929,0.531882352149));
#613 = CARTESIAN_POINT('',(1.178097245094,0.531882352149));
#614 = CARTESIAN_POINT('',(1.079943078266,0.531882352149));
#615 = CARTESIAN_POINT('',(0.981763661148,0.531882352149));
#616 = CARTESIAN_POINT('',(0.883549025128,0.531882352149));
#617 = CARTESIAN_POINT('',(0.687247301667,0.531882352149));
#618 = CARTESIAN_POINT('',(0.589032665647,0.531882352149));
#619 = CARTESIAN_POINT('',(0.490853248528,0.531882352149));
#620 = CARTESIAN_POINT('',(0.392699081703,0.531882352149));
#621 = CARTESIAN_POINT('',(0.294544914863,0.531882352149));
#622 = CARTESIAN_POINT('',(0.196365497754,0.531882352149));
#623 = CARTESIAN_POINT('',(9.815086172996E-02,0.531882352149));
#624 = CARTESIAN_POINT('',(0.,0.531882352149));
#625 = ( GEOMETRIC_REPRESENTATION_CONTEXT(2) 
PARAMETRIC_REPRESENTATION_CONTEXT() REPRESENTATION_CONTEXT('2D SPACE',''
  ) );
#626 = ORIENTED_EDGE('',*,*,#503,.F.);
#627 = ADVANCED_FACE('',(#628,#654),#487,.F.);
#628 = FACE_BOUND('',#629,.F.);
#629 = EDGE_LOOP('',(#630));
#630 = ORIENTED_EDGE('',*,*,#631,.T.);
#631 = EDGE_CURVE('',#632,#632,#634,.T.);
#632 = VERTEX_POINT('',#633);
#633 = CARTESIAN_POINT('',(38.4,0.,-2.));
#634 = SURFACE_CURVE('',#635,(#640,#647),.PCURVE_S1.);
#635 = CIRCLE('',#636,38.4);
#636 = AXIS2_PLACEMENT_3D('',#637,#638,#639);
#637 = CARTESIAN_POINT('',(0.,0.,-2.));
#638 = DIRECTION('',(0.,0.,1.));
#639 = DIRECTION('',(1.,0.,0.));
#640 = PCURVE('',#487,#641);
#641 = DEFINITIONAL_REPRESENTATION('',(#642),#646);
#642 = CIRCLE('',#643,38.4);
#643 = AXIS2_PLACEMENT_2D('',#644,#645);
#644 = CARTESIAN_POINT('',(4.118407928589E-15,-3.242876655026E-16));
#645 = DIRECTION('',(1.,0.));
#646 = ( GEOMETRIC_REPRESENTATION_CONTEXT(2) 
PARAMETRIC_REPRESENTATION_CONTEXT() REPRESENTATION_CONTEXT('2D SPACE',''
  ) );
#647 = PCURVE('',#43,#648);
#648 = DEFINITIONAL_REPRESENTATION('',(#649),#653);
#649 = LINE('',#650,#651);
#650 = CARTESIAN_POINT('',(-0.,0.));
#651 = VECTOR('',#652,1.);
#652 = DIRECTION('',(-1.,0.));
#653 = ( GEOMETRIC_REPRESENTATION_CONTEXT(2) 
PARAMETRIC_REPRESENTATION_CONTEXT() REPRESENTATION_CONTEXT('2D SPACE',''
  ) );
#654 = FACE_BOUND('',#655,.F.);
#655 = EDGE_LOOP('',(#656));
#656 = ORIENTED_EDGE('',*,*,#470,.T.);
#657 = ADVANCED_FACE('',(#658),#206,.F.);
#658 = FACE_BOUND('',#659,.F.);
#659 = EDGE_LOOP('',(#660,#661,#662,#663));
#660 = ORIENTED_EDGE('',*,*,#525,.T.);
#661 = ORIENTED_EDGE('',*,*,#436,.T.);
#662 = ORIENTED_EDGE('',*,*,#187,.T.);
#663 = ORIENTED_EDGE('',*,*,#404,.F.);
#664 = ADVANCED_FACE('',(#665),#43,.T.);
#665 = FACE_BOUND('',#666,.F.);
#666 = EDGE_LOOP('',(#667,#668,#689,#690));
#667 = ORIENTED_EDGE('',*,*,#631,.F.);
#668 = ORIENTED_EDGE('',*,*,#669,.T.);
#669 = EDGE_CURVE('',#632,#22,#670,.T.);
#670 = SEAM_CURVE('',#671,(#675,#682),.PCURVE_S1.);
#671 = LINE('',#672,#673);
#672 = CARTESIAN_POINT('',(38.4,0.,-2.));
#673 = VECTOR('',#674,1.);
#674 = DIRECTION('',(0.,0.,1.));
#675 = PCURVE('',#43,#676);
#676 = DEFINITIONAL_REPRESENTATION('',(#677),#681);
#677 = LINE('',#678,#679);
#678 = CARTESIAN_POINT('',(-0.,0.));
#679 = VECTOR('',#680,1.);
#680 = DIRECTION('',(-0.,-1.));
#681 = ( GEOMETRIC_REPRESENTATION_CONTEXT(2) 
PARAMETRIC_REPRESENTATION_CONTEXT() REPRESENTATION_CONTEXT('2D SPACE',''
  ) );
#682 = PCURVE('',#43,#683);
#683 = DEFINITIONAL_REPRESENTATION('',(#684),#688);
#684 = LINE('',#685,#686);
#685 = CARTESIAN_POINT('',(-6.28318530718,0.));
#686 = VECTOR('',#687,1.);
#687 = DIRECTION('',(-0.,-1.));
#688 = ( GEOMETRIC_REPRESENTATION_CONTEXT(2) 
PARAMETRIC_REPRESENTATION_CONTEXT() REPRESENTATION_CONTEXT('2D SPACE',''
  ) );
#689 = ORIENTED_EDGE('',*,*,#21,.T.);
#690 = ORIENTED_EDGE('',*,*,#669,.F.);
#691 = ( GEOMETRIC_REPRESENTATION_CONTEXT(3) 
GLOBAL_UNCERTAINTY_ASSIGNED_CONTEXT((#695)) GLOBAL_UNIT_ASSIGNED_CONTEXT
((#692,#693,#694)) REPRESENTATION_CONTEXT('Context #1',
  '3D Context with UNIT and UNCERTAINTY') );
#692 = ( LENGTH_UNIT() NAMED_UNIT(*) SI_UNIT(.MILLI.,.METRE.) );
#693 = ( NAMED_UNIT(*) PLANE_ANGLE_UNIT() SI_UNIT($,.RADIAN.) );
#694 = ( NAMED_UNIT(*) SI_UNIT($,.STERADIAN.) SOLID_ANGLE_UNIT() );
#695 = UNCERTAINTY_MEASURE_WITH_UNIT(LENGTH_MEASURE(2.E-04),#692,
  'distance_accuracy_value','confusion accuracy');
#696 = PRODUCT_RELATED_PRODUCT_CATEGORY('part',$,(#7));
ENDSEC;
END-ISO-10303-21;
